<svg xmlns="http://www.w3.org/2000/svg" xmlns:xlink="http://www.w3.org/1999/xlink" width="1200" height="130.26"><rect width="1200" height="130.26" rx="0" ry="0" class="a"/><svg height="130.26" viewBox="0 0 120 13.026" width="1200" xmlns="http://www.w3.org/2000/svg" xmlns:xlink="http://www.w3.org/1999/xlink"><style>@keyframes k{0%{transform:translateX(0)}2.56%{transform:translateX(-120px)}2.57%{transform:translateX(-240px)}2.58%{transform:translateX(-600px)}2.93%{transform:translateX(-720px)}4.65%{transform:translateX(-840px)}5.31%{transform:translateX(-960px)}5.79%{transform:translateX(-1080px)}6.54%{transform:translateX(-1200px)}7.33%{transform:translateX(-1320px)}9.37%{transform:translateX(-1440px)}10.13%{transform:translateX(-1560px)}12.41%{transform:translateX(-1680px)}13.18%{transform:translateX(-1800px)}13.75%{transform:translateX(-1920px)}14.72%{transform:translateX(-2040px)}15.52%{transform:translateX(-2160px)}18.12%{transform:translateX(-2280px)}18.77%{transform:translateX(-2400px)}19.65%{transform:translateX(-2520px)}21.07%{transform:translateX(-2640px)}21.14%{transform:translateX(-2760px)}21.78%{transform:translateX(-2880px)}22.7%{transform:translateX(-3000px)}23.43%{transform:translateX(-3120px)}24.07%{transform:translateX(-3240px)}28.15%{transform:translateX(-3360px)}28.59%{transform:translateX(-3480px)}29.4%{transform:translateX(-3600px)}35.82%{transform:translateX(-3720px)}36.29%{transform:translateX(-3840px)}36.99%{transform:translateX(-3960px)}37.75%{transform:translateX(-4080px)}38.74%{transform:translateX(-4200px)}39.84%{transform:translateX(-4320px)}45.62%{transform:translateX(-4440px)}46.08%{transform:translateX(-4560px)}46.98%{transform:translateX(-4680px)}47.69%{transform:translateX(-4800px)}49.73%{transform:translateX(-4920px)}50.74%{transform:translateX(-5040px)}51.06%{transform:translateX(-5160px)}54.05%{transform:translateX(-5280px)}54.56%{transform:translateX(-5400px)}55.18%{transform:translateX(-5520px)}56.08%{transform:translateX(-5640px)}57.25%{transform:translateX(-5760px)}57.67%{transform:translateX(-5880px)}58.89%{transform:translateX(-6000px)}59.72%{transform:translateX(-6120px)}61.97%{transform:translateX(-6240px)}62.71%{transform:translateX(-6360px)}63.19%{transform:translateX(-6480px)}63.65%{transform:translateX(-6600px)}63.91%{transform:translateX(-6720px)}69.4%{transform:translateX(-6840px)}69.82%{transform:translateX(-6960px)}70.8%{transform:translateX(-7080px)}71.44%{transform:translateX(-7200px)}72.53%{transform:translateX(-7320px)}73.1%{transform:translateX(-7440px)}73.69%{transform:translateX(-7560px)}74.43%{transform:translateX(-7680px)}75.36%{transform:translateX(-7800px)}76.74%{transform:translateX(-7920px)}77.12%{transform:translateX(-8040px)}77.96%{transform:translateX(-8160px)}79.3%{transform:translateX(-8280px)}80.71%{transform:translateX(-8400px)}81.35%{transform:translateX(-8520px)}81.79%{transform:translateX(-8640px)}82.28%{transform:translateX(-8760px)}83.62%{transform:translateX(-8880px)}84.18%{transform:translateX(-9000px)}85.08%{transform:translateX(-9120px)}86.34%{transform:translateX(-9240px)}88.34%{transform:translateX(-9360px)}92.87%{transform:translateX(-9600px)}92.88%{transform:translateX(-9720px)}93.15%{transform:translateX(-9960px)}93.16%{transform:translateX(-10320px)}93.18%{transform:translateX(-10680px)}to{transform:translateX(-10800px)}}.a{fill:#282d35}.c,.d{white-space:pre}.c{fill:#a8cc8c;font-weight:700}.d{fill:#66c2cd}.d,.e,.f{font-weight:700}.e{fill:#71bef2;white-space:pre}.f{fill:#e88388}.f,.g,.h{white-space:pre}.g{fill:#dbab79;font-weight:700}.h{fill:#b9c0cb}</style><g font-family="Monaco,Consolas,Menlo,'Bitstream Vera Sans Mono','Powerline Symbols',monospace" font-size="1.67"><defs><symbol id="1"><text y="1.67" class="c">➜</text><text x="3.006" y="1.67" class="d">test</text></symbol><symbol id="2"><text y="1.67" class="c">➜</text><text x="3.006" y="1.67" class="d">test</text><text x="8.016" y="1.67" class="e">git:(</text><text x="13.026" y="1.67" class="f">main</text><text x="17.034" y="1.67" class="e">)</text><text x="19.038" y="1.67" class="g">✗</text></symbol><symbol id="3"><text y="1.67" class="c">➜</text><text x="3.006" y="1.67" class="d">test</text><text x="8.016" y="1.67" class="e">git:(</text><text x="13.026" y="1.67" class="f">main</text><text x="17.034" y="1.67" class="e">)</text><text x="19.038" y="1.67" class="g">✗</text><text x="21.042" y="1.67" class="h">git</text></symbol><symbol id="4"><text y="1.67" class="c">➜</text><text x="3.006" y="1.67" class="d">test</text><text x="8.016" y="1.67" class="e">git:(</text><text x="13.026" y="1.67" class="f">main</text><text x="17.034" y="1.67" class="e">)</text><text x="19.038" y="1.67" class="g">✗</text><text x="21.042" y="1.67" class="h">git-commit-prefixer</text></symbol><symbol id="5"><text y="1.67" class="c">➜</text><text x="3.006" y="1.67" class="d">test</text><text x="8.016" y="1.67" class="e">git:(</text><text x="13.026" y="1.67" class="f">main</text><text x="17.034" y="1.67" class="e">)</text><text x="19.038" y="1.67" class="g">✗</text><text x="21.042" y="1.67" class="h">git-commit-prefixer</text><text x="41.082" y="1.67" class="h">feat</text></symbol><symbol id="6"><text y="1.67" class="c">➜</text><text x="3.006" y="1.67" class="d">test</text><text x="8.016" y="1.67" class="e">git:(</text><text x="13.026" y="1.67" class="f">main</text><text x="17.034" y="1.67" class="e">)</text><text x="19.038" y="1.67" class="g">✗</text><text x="21.042" y="1.67" class="h">git-commit-prefixer</text><text x="41.082" y="1.67" class="h">feat</text><text x="46.092" y="1.67" class="h">&quot;Add</text></symbol><symbol id="7"><text y="1.67" class="c">➜</text><text x="3.006" y="1.67" class="d">test</text><text x="8.016" y="1.67" class="e">git:(</text><text x="13.026" y="1.67" class="f">main</text><text x="17.034" y="1.67" class="e">)</text><text x="19.038" y="1.67" class="g">✗</text><text x="21.042" y="1.67" class="h">git-commit-prefixer</text><text x="41.082" y="1.67" class="h">feat</text><text x="46.092" y="1.67" class="h">&quot;Add</text><text x="51.102" y="1.67" class="h">interacti</text></symbol><symbol id="8"><text y="1.67" class="c">➜</text><text x="3.006" y="1.67" class="d">test</text><text x="8.016" y="1.67" class="e">git:(</text><text x="13.026" y="1.67" class="f">main</text><text x="17.034" y="1.67" class="e">)</text><text x="19.038" y="1.67" class="g">✗</text><text x="21.042" y="1.67" class="h">git-commit-prefixer</text><text x="41.082" y="1.67" class="h">feat</text><text x="46.092" y="1.67" class="h">&quot;Add</text><text x="51.102" y="1.67" class="h">interactie</text></symbol><symbol id="9"><text y="1.67" class="c">➜</text><text x="3.006" y="1.67" class="d">test</text><text x="8.016" y="1.67" class="e">git:(</text><text x="13.026" y="1.67" class="f">main</text><text x="17.034" y="1.67" class="e">)</text><text x="19.038" y="1.67" class="g">✗</text><text x="21.042" y="1.67" class="h">git-commit-prefixer</text><text x="41.082" y="1.67" class="h">feat</text><text x="46.092" y="1.67" class="h">&quot;Add</text><text x="51.102" y="1.67" class="h">interactive</text></symbol><symbol id="10"><text y="1.67" class="c">➜</text><text x="3.006" y="1.67" class="d">test</text><text x="8.016" y="1.67" class="e">git:(</text><text x="13.026" y="1.67" class="f">main</text><text x="17.034" y="1.67" class="e">)</text><text x="19.038" y="1.67" class="g">✗</text><text x="21.042" y="1.67" class="h">git-commit-prefixer</text><text x="41.082" y="1.67" class="h">feat</text><text x="46.092" y="1.67" class="h">&quot;Add</text><text x="51.102" y="1.67" class="h">interactive</text><text x="63.126" y="1.67" class="h">commit</text></symbol><symbol id="11"><text y="1.67" class="c">➜</text><text x="3.006" y="1.67" class="d">test</text><text x="8.016" y="1.67" class="e">git:(</text><text x="13.026" y="1.67" class="f">main</text><text x="17.034" y="1.67" class="e">)</text><text x="19.038" y="1.67" class="g">✗</text><text x="21.042" y="1.67" class="h">git-commit-prefixer</text><text x="41.082" y="1.67" class="h">feat</text><text x="46.092" y="1.67" class="h">&quot;Add</text><text x="51.102" y="1.67" class="h">interactive</text><text x="63.126" y="1.67" class="h">commit</text><text x="70.14" y="1.67" class="h">type</text></symbol><symbol id="12"><text y="1.67" class="c">➜</text><text x="3.006" y="1.67" class="d">test</text><text x="8.016" y="1.67" class="e">git:(</text><text x="13.026" y="1.67" class="f">main</text><text x="17.034" y="1.67" class="e">)</text><text x="19.038" y="1.67" class="g">✗</text><text x="21.042" y="1.67" class="h">git-commit-prefixer</text><text x="41.082" y="1.67" class="h">feat</text><text x="46.092" y="1.67" class="h">&quot;Add</text><text x="51.102" y="1.67" class="h">interactive</text><text x="63.126" y="1.67" class="h">commit</text><text x="70.14" y="1.67" class="h">type</text><text x="75.15" y="1.67" class="h">selection&quot;</text></symbol><symbol id="13"><text y="1.67" class="h">[main</text><text x="6.012" y="1.67" class="h">(root-commit)</text><text x="20.04" y="1.67" class="h">b4bc53c]</text><text x="29.058" y="1.67" class="h">✨</text><text x="31.062" y="1.67" class="h">[feat]:</text><text x="39.078" y="1.67" class="h">Add</text><text x="43.086" y="1.67" class="h">interactive</text><text x="55.11" y="1.67" class="h">commit</text><text x="62.124" y="1.67" class="h">type</text><text x="67.134" y="1.67" class="h">selection</text></symbol><symbol id="14"><text x="1.002" y="1.67" class="h">1</text><text x="3.006" y="1.67" class="h">file</text><text x="8.016" y="1.67" class="h">changed,</text><text x="17.034" y="1.67" class="h">1</text><text x="19.038" y="1.67" class="h">insertion(+)</text></symbol><symbol id="15"><text x="1.002" y="1.67" class="h">create</text><text x="8.016" y="1.67" class="h">mode</text><text x="13.026" y="1.67" class="h">100644</text><text x="20.04" y="1.67" class="h">test.txt</text></symbol><symbol id="a"><path fill="transparent" d="M0 0h120v7H0z"/></symbol><symbol id="b"><path fill="#6f7683" d="M0 0h1.102v2.171H0z"/></symbol></defs><path class="a" d="M0 0h120v13.026H0z"/><g style="animation-duration:17.067141s;animation-iteration-count:infinite;animation-name:k;animation-timing-function:steps(1,end)"><svg width="10920"><svg><use xlink:href="#a"/><use xlink:href="#b" x="-.004"/></svg><svg x="120"><use xlink:href="#a"/><use xlink:href="#b" x="-.004"/></svg><svg x="240"><use xlink:href="#a"/><use xlink:href="#b" x="-.004"/></svg><svg x="360"><use xlink:href="#a"/><use xlink:href="#b" x="-.004"/></svg><svg x="480"><use xlink:href="#a"/><use xlink:href="#b" x="7.996"/><use xlink:href="#1"/></svg><svg x="600"><use xlink:href="#a"/><use xlink:href="#b" x="7.996"/><use xlink:href="#1"/></svg><svg x="720"><use xlink:href="#a"/><use xlink:href="#b" x="20.996"/><use xlink:href="#2"/></svg><svg x="840"><use xlink:href="#a"/><use xlink:href="#b" x="21.996"/><text y="1.67" class="c">➜</text><text x="3.006" y="1.67" class="d">test</text><text x="8.016" y="1.67" class="e">git:(</text><text x="13.026" y="1.67" class="f">main</text><text x="17.034" y="1.67" class="e">)</text><text x="19.038" y="1.67" class="g">✗</text><text x="21.042" y="1.67" class="h">g</text></svg><svg x="960"><use xlink:href="#a"/><use xlink:href="#b" x="22.996"/><text y="1.67" class="c">➜</text><text x="3.006" y="1.67" class="d">test</text><text x="8.016" y="1.67" class="e">git:(</text><text x="13.026" y="1.67" class="f">main</text><text x="17.034" y="1.67" class="e">)</text><text x="19.038" y="1.67" class="g">✗</text><text x="21.042" y="1.67" class="h">gi</text></svg><svg x="1080"><use xlink:href="#a"/><use xlink:href="#b" x="23.996"/><use xlink:href="#3"/></svg><svg x="1200"><use xlink:href="#a"/><use xlink:href="#b" x="24.996"/><use xlink:href="#3"/></svg><svg x="1320"><use xlink:href="#a"/><use xlink:href="#b" x="25.996"/><text y="1.67" class="c">➜</text><text x="3.006" y="1.67" class="d">test</text><text x="8.016" y="1.67" class="e">git:(</text><text x="13.026" y="1.67" class="f">main</text><text x="17.034" y="1.67" class="e">)</text><text x="19.038" y="1.67" class="g">✗</text><text x="21.042" y="1.67" class="h">git</text><text x="25.05" y="1.67" class="h">c</text></svg><svg x="1440"><use xlink:href="#a"/><use xlink:href="#b" x="24.996"/><use xlink:href="#3"/></svg><svg x="1560"><use xlink:href="#a"/><use xlink:href="#b" x="23.996"/><use xlink:href="#3"/></svg><svg x="1680"><use xlink:href="#a"/><use xlink:href="#b" x="24.996"/><text y="1.67" class="c">➜</text><text x="3.006" y="1.67" class="d">test</text><text x="8.016" y="1.67" class="e">git:(</text><text x="13.026" y="1.67" class="f">main</text><text x="17.034" y="1.67" class="e">)</text><text x="19.038" y="1.67" class="g">✗</text><text x="21.042" y="1.67" class="h">git-</text></svg><svg x="1800"><use xlink:href="#a"/><use xlink:href="#b" x="25.996"/><text y="1.67" class="c">➜</text><text x="3.006" y="1.67" class="d">test</text><text x="8.016" y="1.67" class="e">git:(</text><text x="13.026" y="1.67" class="f">main</text><text x="17.034" y="1.67" class="e">)</text><text x="19.038" y="1.67" class="g">✗</text><text x="21.042" y="1.67" class="h">git-c</text></svg><svg x="1920"><use xlink:href="#a"/><use xlink:href="#b" x="26.996"/><text y="1.67" class="c">➜</text><text x="3.006" y="1.67" class="d">test</text><text x="8.016" y="1.67" class="e">git:(</text><text x="13.026" y="1.67" class="f">main</text><text x="17.034" y="1.67" class="e">)</text><text x="19.038" y="1.67" class="g">✗</text><text x="21.042" y="1.67" class="h">git-co</text></svg><svg x="2040"><use xlink:href="#a"/><use xlink:href="#b" x="27.996"/><text y="1.67" class="c">➜</text><text x="3.006" y="1.67" class="d">test</text><text x="8.016" y="1.67" class="e">git:(</text><text x="13.026" y="1.67" class="f">main</text><text x="17.034" y="1.67" class="e">)</text><text x="19.038" y="1.67" class="g">✗</text><text x="21.042" y="1.67" class="h">git-com</text></svg><svg x="2160"><use xlink:href="#a"/><use xlink:href="#b" x="28.996"/><text y="1.67" class="c">➜</text><text x="3.006" y="1.67" class="d">test</text><text x="8.016" y="1.67" class="e">git:(</text><text x="13.026" y="1.67" class="f">main</text><text x="17.034" y="1.67" class="e">)</text><text x="19.038" y="1.67" class="g">✗</text><text x="21.042" y="1.67" class="h">git-comm</text></svg><svg x="2280"><use xlink:href="#a"/><use xlink:href="#b" x="29.996"/><text y="1.67" class="c">➜</text><text x="3.006" y="1.67" class="d">test</text><text x="8.016" y="1.67" class="e">git:(</text><text x="13.026" y="1.67" class="f">main</text><text x="17.034" y="1.67" class="e">)</text><text x="19.038" y="1.67" class="g">✗</text><text x="21.042" y="1.67" class="h">git-commi</text></svg><svg x="2400"><use xlink:href="#a"/><use xlink:href="#b" x="30.996"/><text y="1.67" class="c">➜</text><text x="3.006" y="1.67" class="d">test</text><text x="8.016" y="1.67" class="e">git:(</text><text x="13.026" y="1.67" class="f">main</text><text x="17.034" y="1.67" class="e">)</text><text x="19.038" y="1.67" class="g">✗</text><text x="21.042" y="1.67" class="h">git-commit</text></svg><svg x="2520"><use xlink:href="#a"/><use xlink:href="#b" x="31.996"/><text y="1.67" class="c">➜</text><text x="3.006" y="1.67" class="d">test</text><text x="8.016" y="1.67" class="e">git:(</text><text x="13.026" y="1.67" class="f">main</text><text x="17.034" y="1.67" class="e">)</text><text x="19.038" y="1.67" class="g">✗</text><text x="21.042" y="1.67" class="h">git-commit-</text></svg><svg x="2640"><use xlink:href="#a"/><use xlink:href="#b" x="32.996"/><text y="1.67" class="c">➜</text><text x="3.006" y="1.67" class="d">test</text><text x="8.016" y="1.67" class="e">git:(</text><text x="13.026" y="1.67" class="f">main</text><text x="17.034" y="1.67" class="e">)</text><text x="19.038" y="1.67" class="g">✗</text><text x="21.042" y="1.67" class="h">git-commit-p</text></svg><svg x="2760"><use xlink:href="#a"/><use xlink:href="#b" x="33.996"/><text y="1.67" class="c">➜</text><text x="3.006" y="1.67" class="d">test</text><text x="8.016" y="1.67" class="e">git:(</text><text x="13.026" y="1.67" class="f">main</text><text x="17.034" y="1.67" class="e">)</text><text x="19.038" y="1.67" class="g">✗</text><text x="21.042" y="1.67" class="h">git-commit-pr</text></svg><svg x="2880"><use xlink:href="#a"/><use xlink:href="#b" x="34.996"/><text y="1.67" class="c">➜</text><text x="3.006" y="1.67" class="d">test</text><text x="8.016" y="1.67" class="e">git:(</text><text x="13.026" y="1.67" class="f">main</text><text x="17.034" y="1.67" class="e">)</text><text x="19.038" y="1.67" class="g">✗</text><text x="21.042" y="1.67" class="h">git-commit-pre</text></svg><svg x="3000"><use xlink:href="#a"/><use xlink:href="#b" x="35.996"/><text y="1.67" class="c">➜</text><text x="3.006" y="1.67" class="d">test</text><text x="8.016" y="1.67" class="e">git:(</text><text x="13.026" y="1.67" class="f">main</text><text x="17.034" y="1.67" class="e">)</text><text x="19.038" y="1.67" class="g">✗</text><text x="21.042" y="1.67" class="h">git-commit-pref</text></svg><svg x="3120"><use xlink:href="#a"/><use xlink:href="#b" x="36.996"/><text y="1.67" class="c">➜</text><text x="3.006" y="1.67" class="d">test</text><text x="8.016" y="1.67" class="e">git:(</text><text x="13.026" y="1.67" class="f">main</text><text x="17.034" y="1.67" class="e">)</text><text x="19.038" y="1.67" class="g">✗</text><text x="21.042" y="1.67" class="h">git-commit-prefi</text></svg><svg x="3240"><use xlink:href="#a"/><use xlink:href="#b" x="37.996"/><text y="1.67" class="c">➜</text><text x="3.006" y="1.67" class="d">test</text><text x="8.016" y="1.67" class="e">git:(</text><text x="13.026" y="1.67" class="f">main</text><text x="17.034" y="1.67" class="e">)</text><text x="19.038" y="1.67" class="g">✗</text><text x="21.042" y="1.67" class="h">git-commit-prefix</text></svg><svg x="3360"><use xlink:href="#a"/><use xlink:href="#b" x="38.996"/><text y="1.67" class="c">➜</text><text x="3.006" y="1.67" class="d">test</text><text x="8.016" y="1.67" class="e">git:(</text><text x="13.026" y="1.67" class="f">main</text><text x="17.034" y="1.67" class="e">)</text><text x="19.038" y="1.67" class="g">✗</text><text x="21.042" y="1.67" class="h">git-commit-prefixe</text></svg><svg x="3480"><use xlink:href="#a"/><use xlink:href="#b" x="39.996"/><use xlink:href="#4"/></svg><svg x="3600"><use xlink:href="#a"/><use xlink:href="#b" x="40.996"/><use xlink:href="#4"/></svg><svg x="3720"><use xlink:href="#a"/><use xlink:href="#b" x="41.996"/><text y="1.67" class="c">➜</text><text x="3.006" y="1.67" class="d">test</text><text x="8.016" y="1.67" class="e">git:(</text><text x="13.026" y="1.67" class="f">main</text><text x="17.034" y="1.67" class="e">)</text><text x="19.038" y="1.67" class="g">✗</text><text x="21.042" y="1.67" class="h">git-commit-prefixer</text><text x="41.082" y="1.67" class="h">f</text></svg><svg x="3840"><use xlink:href="#a"/><use xlink:href="#b" x="42.996"/><text y="1.67" class="c">➜</text><text x="3.006" y="1.67" class="d">test</text><text x="8.016" y="1.67" class="e">git:(</text><text x="13.026" y="1.67" class="f">main</text><text x="17.034" y="1.67" class="e">)</text><text x="19.038" y="1.67" class="g">✗</text><text x="21.042" y="1.67" class="h">git-commit-prefixer</text><text x="41.082" y="1.67" class="h">fe</text></svg><svg x="3960"><use xlink:href="#a"/><use xlink:href="#b" x="43.996"/><text y="1.67" class="c">➜</text><text x="3.006" y="1.67" class="d">test</text><text x="8.016" y="1.67" class="e">git:(</text><text x="13.026" y="1.67" class="f">main</text><text x="17.034" y="1.67" class="e">)</text><text x="19.038" y="1.67" class="g">✗</text><text x="21.042" y="1.67" class="h">git-commit-prefixer</text><text x="41.082" y="1.67" class="h">fea</text></svg><svg x="4080"><use xlink:href="#a"/><use xlink:href="#b" x="44.996"/><use xlink:href="#5"/></svg><svg x="4200"><use xlink:href="#a"/><use xlink:href="#b" x="45.996"/><use xlink:href="#5"/></svg><svg x="4320"><use xlink:href="#a"/><use xlink:href="#b" x="46.996"/><text y="1.67" class="c">➜</text><text x="3.006" y="1.67" class="d">test</text><text x="8.016" y="1.67" class="e">git:(</text><text x="13.026" y="1.67" class="f">main</text><text x="17.034" y="1.67" class="e">)</text><text x="19.038" y="1.67" class="g">✗</text><text x="21.042" y="1.67" class="h">git-commit-prefixer</text><text x="41.082" y="1.67" class="h">feat</text><text x="46.092" y="1.67" class="h">&quot;</text></svg><svg x="4440"><use xlink:href="#a"/><use xlink:href="#b" x="47.996"/><text y="1.67" class="c">➜</text><text x="3.006" y="1.67" class="d">test</text><text x="8.016" y="1.67" class="e">git:(</text><text x="13.026" y="1.67" class="f">main</text><text x="17.034" y="1.67" class="e">)</text><text x="19.038" y="1.67" class="g">✗</text><text x="21.042" y="1.67" class="h">git-commit-prefixer</text><text x="41.082" y="1.67" class="h">feat</text><text x="46.092" y="1.67" class="h">&quot;A</text></svg><svg x="4560"><use xlink:href="#a"/><use xlink:href="#b" x="48.996"/><text y="1.67" class="c">➜</text><text x="3.006" y="1.67" class="d">test</text><text x="8.016" y="1.67" class="e">git:(</text><text x="13.026" y="1.67" class="f">main</text><text x="17.034" y="1.67" class="e">)</text><text x="19.038" y="1.67" class="g">✗</text><text x="21.042" y="1.67" class="h">git-commit-prefixer</text><text x="41.082" y="1.67" class="h">feat</text><text x="46.092" y="1.67" class="h">&quot;Ad</text></svg><svg x="4680"><use xlink:href="#a"/><use xlink:href="#b" x="49.996"/><use xlink:href="#6"/></svg><svg x="4800"><use xlink:href="#a"/><use xlink:href="#b" x="50.996"/><use xlink:href="#6"/></svg><svg x="4920"><use xlink:href="#a"/><use xlink:href="#b" x="51.996"/><text y="1.67" class="c">➜</text><text x="3.006" y="1.67" class="d">test</text><text x="8.016" y="1.67" class="e">git:(</text><text x="13.026" y="1.67" class="f">main</text><text x="17.034" y="1.67" class="e">)</text><text x="19.038" y="1.67" class="g">✗</text><text x="21.042" y="1.67" class="h">git-commit-prefixer</text><text x="41.082" y="1.67" class="h">feat</text><text x="46.092" y="1.67" class="h">&quot;Add</text><text x="51.102" y="1.67" class="h">i</text></svg><svg x="5040"><use xlink:href="#a"/><use xlink:href="#b" x="52.996"/><text y="1.67" class="c">➜</text><text x="3.006" y="1.67" class="d">test</text><text x="8.016" y="1.67" class="e">git:(</text><text x="13.026" y="1.67" class="f">main</text><text x="17.034" y="1.67" class="e">)</text><text x="19.038" y="1.67" class="g">✗</text><text x="21.042" y="1.67" class="h">git-commit-prefixer</text><text x="41.082" y="1.67" class="h">feat</text><text x="46.092" y="1.67" class="h">&quot;Add</text><text x="51.102" y="1.67" class="h">in</text></svg><svg x="5160"><use xlink:href="#a"/><use xlink:href="#b" x="53.996"/><text y="1.67" class="c">➜</text><text x="3.006" y="1.67" class="d">test</text><text x="8.016" y="1.67" class="e">git:(</text><text x="13.026" y="1.67" class="f">main</text><text x="17.034" y="1.67" class="e">)</text><text x="19.038" y="1.67" class="g">✗</text><text x="21.042" y="1.67" class="h">git-commit-prefixer</text><text x="41.082" y="1.67" class="h">feat</text><text x="46.092" y="1.67" class="h">&quot;Add</text><text x="51.102" y="1.67" class="h">int</text></svg><svg x="5280"><use xlink:href="#a"/><use xlink:href="#b" x="54.996"/><text y="1.67" class="c">➜</text><text x="3.006" y="1.67" class="d">test</text><text x="8.016" y="1.67" class="e">git:(</text><text x="13.026" y="1.67" class="f">main</text><text x="17.034" y="1.67" class="e">)</text><text x="19.038" y="1.67" class="g">✗</text><text x="21.042" y="1.67" class="h">git-commit-prefixer</text><text x="41.082" y="1.67" class="h">feat</text><text x="46.092" y="1.67" class="h">&quot;Add</text><text x="51.102" y="1.67" class="h">inte</text></svg><svg x="5400"><use xlink:href="#a"/><use xlink:href="#b" x="55.996"/><text y="1.67" class="c">➜</text><text x="3.006" y="1.67" class="d">test</text><text x="8.016" y="1.67" class="e">git:(</text><text x="13.026" y="1.67" class="f">main</text><text x="17.034" y="1.67" class="e">)</text><text x="19.038" y="1.67" class="g">✗</text><text x="21.042" y="1.67" class="h">git-commit-prefixer</text><text x="41.082" y="1.67" class="h">feat</text><text x="46.092" y="1.67" class="h">&quot;Add</text><text x="51.102" y="1.67" class="h">inter</text></svg><svg x="5520"><use xlink:href="#a"/><use xlink:href="#b" x="56.996"/><text y="1.67" class="c">➜</text><text x="3.006" y="1.67" class="d">test</text><text x="8.016" y="1.67" class="e">git:(</text><text x="13.026" y="1.67" class="f">main</text><text x="17.034" y="1.67" class="e">)</text><text x="19.038" y="1.67" class="g">✗</text><text x="21.042" y="1.67" class="h">git-commit-prefixer</text><text x="41.082" y="1.67" class="h">feat</text><text x="46.092" y="1.67" class="h">&quot;Add</text><text x="51.102" y="1.67" class="h">intera</text></svg><svg x="5640"><use xlink:href="#a"/><use xlink:href="#b" x="57.996"/><text y="1.67" class="c">➜</text><text x="3.006" y="1.67" class="d">test</text><text x="8.016" y="1.67" class="e">git:(</text><text x="13.026" y="1.67" class="f">main</text><text x="17.034" y="1.67" class="e">)</text><text x="19.038" y="1.67" class="g">✗</text><text x="21.042" y="1.67" class="h">git-commit-prefixer</text><text x="41.082" y="1.67" class="h">feat</text><text x="46.092" y="1.67" class="h">&quot;Add</text><text x="51.102" y="1.67" class="h">interac</text></svg><svg x="5760"><use xlink:href="#a"/><use xlink:href="#b" x="58.996"/><text y="1.67" class="c">➜</text><text x="3.006" y="1.67" class="d">test</text><text x="8.016" y="1.67" class="e">git:(</text><text x="13.026" y="1.67" class="f">main</text><text x="17.034" y="1.67" class="e">)</text><text x="19.038" y="1.67" class="g">✗</text><text x="21.042" y="1.67" class="h">git-commit-prefixer</text><text x="41.082" y="1.67" class="h">feat</text><text x="46.092" y="1.67" class="h">&quot;Add</text><text x="51.102" y="1.67" class="h">interact</text></svg><svg x="5880"><use xlink:href="#a"/><use xlink:href="#b" x="59.996"/><use xlink:href="#7"/></svg><svg x="6000"><use xlink:href="#a"/><use xlink:href="#b" x="60.996"/><use xlink:href="#8"/></svg><svg x="6120"><use xlink:href="#a"/><use xlink:href="#b" x="61.996"/><use xlink:href="#8"/></svg><svg x="6240"><use xlink:href="#a"/><use xlink:href="#b" x="60.996"/><use xlink:href="#8"/></svg><svg x="6360"><use xlink:href="#a"/><use xlink:href="#b" x="59.996"/><use xlink:href="#7"/></svg><svg x="6480"><use xlink:href="#a"/><use xlink:href="#b" x="60.996"/><text y="1.67" class="c">➜</text><text x="3.006" y="1.67" class="d">test</text><text x="8.016" y="1.67" class="e">git:(</text><text x="13.026" y="1.67" class="f">main</text><text x="17.034" y="1.67" class="e">)</text><text x="19.038" y="1.67" class="g">✗</text><text x="21.042" y="1.67" class="h">git-commit-prefixer</text><text x="41.082" y="1.67" class="h">feat</text><text x="46.092" y="1.67" class="h">&quot;Add</text><text x="51.102" y="1.67" class="h">interactiv</text></svg><svg x="6600"><use xlink:href="#a"/><use xlink:href="#b" x="61.996"/><use xlink:href="#9"/></svg><svg x="6720"><use xlink:href="#a"/><use xlink:href="#b" x="62.996"/><use xlink:href="#9"/></svg><svg x="6840"><use xlink:href="#a"/><use xlink:href="#b" x="63.996"/><text y="1.67" class="c">➜</text><text x="3.006" y="1.67" class="d">test</text><text x="8.016" y="1.67" class="e">git:(</text><text x="13.026" y="1.67" class="f">main</text><text x="17.034" y="1.67" class="e">)</text><text x="19.038" y="1.67" class="g">✗</text><text x="21.042" y="1.67" class="h">git-commit-prefixer</text><text x="41.082" y="1.67" class="h">feat</text><text x="46.092" y="1.67" class="h">&quot;Add</text><text x="51.102" y="1.67" class="h">interactive</text><text x="63.126" y="1.67" class="h">c</text></svg><svg x="6960"><use xlink:href="#a"/><use xlink:href="#b" x="64.996"/><text y="1.67" class="c">➜</text><text x="3.006" y="1.67" class="d">test</text><text x="8.016" y="1.67" class="e">git:(</text><text x="13.026" y="1.67" class="f">main</text><text x="17.034" y="1.67" class="e">)</text><text x="19.038" y="1.67" class="g">✗</text><text x="21.042" y="1.67" class="h">git-commit-prefixer</text><text x="41.082" y="1.67" class="h">feat</text><text x="46.092" y="1.67" class="h">&quot;Add</text><text x="51.102" y="1.67" class="h">interactive</text><text x="63.126" y="1.67" class="h">co</text></svg><svg x="7080"><use xlink:href="#a"/><use xlink:href="#b" x="65.996"/><text y="1.67" class="c">➜</text><text x="3.006" y="1.67" class="d">test</text><text x="8.016" y="1.67" class="e">git:(</text><text x="13.026" y="1.67" class="f">main</text><text x="17.034" y="1.67" class="e">)</text><text x="19.038" y="1.67" class="g">✗</text><text x="21.042" y="1.67" class="h">git-commit-prefixer</text><text x="41.082" y="1.67" class="h">feat</text><text x="46.092" y="1.67" class="h">&quot;Add</text><text x="51.102" y="1.67" class="h">interactive</text><text x="63.126" y="1.67" class="h">com</text></svg><svg x="7200"><use xlink:href="#a"/><use xlink:href="#b" x="66.996"/><text y="1.67" class="c">➜</text><text x="3.006" y="1.67" class="d">test</text><text x="8.016" y="1.67" class="e">git:(</text><text x="13.026" y="1.67" class="f">main</text><text x="17.034" y="1.67" class="e">)</text><text x="19.038" y="1.67" class="g">✗</text><text x="21.042" y="1.67" class="h">git-commit-prefixer</text><text x="41.082" y="1.67" class="h">feat</text><text x="46.092" y="1.67" class="h">&quot;Add</text><text x="51.102" y="1.67" class="h">interactive</text><text x="63.126" y="1.67" class="h">comm</text></svg><svg x="7320"><use xlink:href="#a"/><use xlink:href="#b" x="67.996"/><text y="1.67" class="c">➜</text><text x="3.006" y="1.67" class="d">test</text><text x="8.016" y="1.67" class="e">git:(</text><text x="13.026" y="1.67" class="f">main</text><text x="17.034" y="1.67" class="e">)</text><text x="19.038" y="1.67" class="g">✗</text><text x="21.042" y="1.67" class="h">git-commit-prefixer</text><text x="41.082" y="1.67" class="h">feat</text><text x="46.092" y="1.67" class="h">&quot;Add</text><text x="51.102" y="1.67" class="h">interactive</text><text x="63.126" y="1.67" class="h">commi</text></svg><svg x="7440"><use xlink:href="#a"/><use xlink:href="#b" x="68.996"/><use xlink:href="#10"/></svg><svg x="7560"><use xlink:href="#a"/><use xlink:href="#b" x="69.996"/><use xlink:href="#10"/></svg><svg x="7680"><use xlink:href="#a"/><use xlink:href="#b" x="70.996"/><text y="1.67" class="c">➜</text><text x="3.006" y="1.67" class="d">test</text><text x="8.016" y="1.67" class="e">git:(</text><text x="13.026" y="1.67" class="f">main</text><text x="17.034" y="1.67" class="e">)</text><text x="19.038" y="1.67" class="g">✗</text><text x="21.042" y="1.67" class="h">git-commit-prefixer</text><text x="41.082" y="1.67" class="h">feat</text><text x="46.092" y="1.67" class="h">&quot;Add</text><text x="51.102" y="1.67" class="h">interactive</text><text x="63.126" y="1.67" class="h">commit</text><text x="70.14" y="1.67" class="h">t</text></svg><svg x="7800"><use xlink:href="#a"/><use xlink:href="#b" x="71.996"/><text y="1.67" class="c">➜</text><text x="3.006" y="1.67" class="d">test</text><text x="8.016" y="1.67" class="e">git:(</text><text x="13.026" y="1.67" class="f">main</text><text x="17.034" y="1.67" class="e">)</text><text x="19.038" y="1.67" class="g">✗</text><text x="21.042" y="1.67" class="h">git-commit-prefixer</text><text x="41.082" y="1.67" class="h">feat</text><text x="46.092" y="1.67" class="h">&quot;Add</text><text x="51.102" y="1.67" class="h">interactive</text><text x="63.126" y="1.67" class="h">commit</text><text x="70.14" y="1.67" class="h">ty</text></svg><svg x="7920"><use xlink:href="#a"/><use xlink:href="#b" x="72.996"/><text y="1.67" class="c">➜</text><text x="3.006" y="1.67" class="d">test</text><text x="8.016" y="1.67" class="e">git:(</text><text x="13.026" y="1.67" class="f">main</text><text x="17.034" y="1.67" class="e">)</text><text x="19.038" y="1.67" class="g">✗</text><text x="21.042" y="1.67" class="h">git-commit-prefixer</text><text x="41.082" y="1.67" class="h">feat</text><text x="46.092" y="1.67" class="h">&quot;Add</text><text x="51.102" y="1.67" class="h">interactive</text><text x="63.126" y="1.67" class="h">commit</text><text x="70.14" y="1.67" class="h">typ</text></svg><svg x="8040"><use xlink:href="#a"/><use xlink:href="#b" x="73.996"/><use xlink:href="#11"/></svg><svg x="8160"><use xlink:href="#a"/><use xlink:href="#b" x="74.996"/><use xlink:href="#11"/></svg><svg x="8280"><use xlink:href="#a"/><use xlink:href="#b" x="75.996"/><text y="1.67" class="c">➜</text><text x="3.006" y="1.67" class="d">test</text><text x="8.016" y="1.67" class="e">git:(</text><text x="13.026" y="1.67" class="f">main</text><text x="17.034" y="1.67" class="e">)</text><text x="19.038" y="1.67" class="g">✗</text><text x="21.042" y="1.67" class="h">git-commit-prefixer</text><text x="41.082" y="1.67" class="h">feat</text><text x="46.092" y="1.67" class="h">&quot;Add</text><text x="51.102" y="1.67" class="h">interactive</text><text x="63.126" y="1.67" class="h">commit</text><text x="70.14" y="1.67" class="h">type</text><text x="75.15" y="1.67" class="h">s</text></svg><svg x="8400"><use xlink:href="#a"/><use xlink:href="#b" x="76.996"/><text y="1.67" class="c">➜</text><text x="3.006" y="1.67" class="d">test</text><text x="8.016" y="1.67" class="e">git:(</text><text x="13.026" y="1.67" class="f">main</text><text x="17.034" y="1.67" class="e">)</text><text x="19.038" y="1.67" class="g">✗</text><text x="21.042" y="1.67" class="h">git-commit-prefixer</text><text x="41.082" y="1.67" class="h">feat</text><text x="46.092" y="1.67" class="h">&quot;Add</text><text x="51.102" y="1.67" class="h">interactive</text><text x="63.126" y="1.67" class="h">commit</text><text x="70.14" y="1.67" class="h">type</text><text x="75.15" y="1.67" class="h">se</text></svg><svg x="8520"><use xlink:href="#a"/><use xlink:href="#b" x="77.996"/><text y="1.67" class="c">➜</text><text x="3.006" y="1.67" class="d">test</text><text x="8.016" y="1.67" class="e">git:(</text><text x="13.026" y="1.67" class="f">main</text><text x="17.034" y="1.67" class="e">)</text><text x="19.038" y="1.67" class="g">✗</text><text x="21.042" y="1.67" class="h">git-commit-prefixer</text><text x="41.082" y="1.67" class="h">feat</text><text x="46.092" y="1.67" class="h">&quot;Add</text><text x="51.102" y="1.67" class="h">interactive</text><text x="63.126" y="1.67" class="h">commit</text><text x="70.14" y="1.67" class="h">type</text><text x="75.15" y="1.67" class="h">sel</text></svg><svg x="8640"><use xlink:href="#a"/><use xlink:href="#b" x="78.996"/><text y="1.67" class="c">➜</text><text x="3.006" y="1.67" class="d">test</text><text x="8.016" y="1.67" class="e">git:(</text><text x="13.026" y="1.67" class="f">main</text><text x="17.034" y="1.67" class="e">)</text><text x="19.038" y="1.67" class="g">✗</text><text x="21.042" y="1.67" class="h">git-commit-prefixer</text><text x="41.082" y="1.67" class="h">feat</text><text x="46.092" y="1.67" class="h">&quot;Add</text><text x="51.102" y="1.67" class="h">interactive</text><text x="63.126" y="1.67" class="h">commit</text><text x="70.14" y="1.67" class="h">type</text><text x="75.15" y="1.67" class="h">sele</text></svg><svg x="8760"><use xlink:href="#a"/><use xlink:href="#b" x="79.996"/><text y="1.67" class="c">➜</text><text x="3.006" y="1.67" class="d">test</text><text x="8.016" y="1.67" class="e">git:(</text><text x="13.026" y="1.67" class="f">main</text><text x="17.034" y="1.67" class="e">)</text><text x="19.038" y="1.67" class="g">✗</text><text x="21.042" y="1.67" class="h">git-commit-prefixer</text><text x="41.082" y="1.67" class="h">feat</text><text x="46.092" y="1.67" class="h">&quot;Add</text><text x="51.102" y="1.67" class="h">interactive</text><text x="63.126" y="1.67" class="h">commit</text><text x="70.14" y="1.67" class="h">type</text><text x="75.15" y="1.67" class="h">selec</text></svg><svg x="8880"><use xlink:href="#a"/><use xlink:href="#b" x="80.996"/><text y="1.67" class="c">➜</text><text x="3.006" y="1.67" class="d">test</text><text x="8.016" y="1.67" class="e">git:(</text><text x="13.026" y="1.67" class="f">main</text><text x="17.034" y="1.67" class="e">)</text><text x="19.038" y="1.67" class="g">✗</text><text x="21.042" y="1.67" class="h">git-commit-prefixer</text><text x="41.082" y="1.67" class="h">feat</text><text x="46.092" y="1.67" class="h">&quot;Add</text><text x="51.102" y="1.67" class="h">interactive</text><text x="63.126" y="1.67" class="h">commit</text><text x="70.14" y="1.67" class="h">type</text><text x="75.15" y="1.67" class="h">select</text></svg><svg x="9000"><use xlink:href="#a"/><use xlink:href="#b" x="81.996"/><text y="1.67" class="c">➜</text><text x="3.006" y="1.67" class="d">test</text><text x="8.016" y="1.67" class="e">git:(</text><text x="13.026" y="1.67" class="f">main</text><text x="17.034" y="1.67" class="e">)</text><text x="19.038" y="1.67" class="g">✗</text><text x="21.042" y="1.67" class="h">git-commit-prefixer</text><text x="41.082" y="1.67" class="h">feat</text><text x="46.092" y="1.67" class="h">&quot;Add</text><text x="51.102" y="1.67" class="h">interactive</text><text x="63.126" y="1.67" class="h">commit</text><text x="70.14" y="1.67" class="h">type</text><text x="75.15" y="1.67" class="h">selecti</text></svg><svg x="9120"><use xlink:href="#a"/><use xlink:href="#b" x="82.996"/><text y="1.67" class="c">➜</text><text x="3.006" y="1.67" class="d">test</text><text x="8.016" y="1.67" class="e">git:(</text><text x="13.026" y="1.67" class="f">main</text><text x="17.034" y="1.67" class="e">)</text><text x="19.038" y="1.67" class="g">✗</text><text x="21.042" y="1.67" class="h">git-commit-prefixer</text><text x="41.082" y="1.67" class="h">feat</text><text x="46.092" y="1.67" class="h">&quot;Add</text><text x="51.102" y="1.67" class="h">interactive</text><text x="63.126" y="1.67" class="h">commit</text><text x="70.14" y="1.67" class="h">type</text><text x="75.15" y="1.67" class="h">selectio</text></svg><svg x="9240"><use xlink:href="#a"/><use xlink:href="#b" x="83.996"/><text y="1.67" class="c">➜</text><text x="3.006" y="1.67" class="d">test</text><text x="8.016" y="1.67" class="e">git:(</text><text x="13.026" y="1.67" class="f">main</text><text x="17.034" y="1.67" class="e">)</text><text x="19.038" y="1.67" class="g">✗</text><text x="21.042" y="1.67" class="h">git-commit-prefixer</text><text x="41.082" y="1.67" class="h">feat</text><text x="46.092" y="1.67" class="h">&quot;Add</text><text x="51.102" y="1.67" class="h">interactive</text><text x="63.126" y="1.67" class="h">commit</text><text x="70.14" y="1.67" class="h">type</text><text x="75.15" y="1.67" class="h">selection</text></svg><svg x="9360"><use xlink:href="#a"/><use xlink:href="#b" x="84.996"/><use xlink:href="#12"/></svg><svg x="9480"><use xlink:href="#a"/><use xlink:href="#b" x="84.996"/><use xlink:href="#12"/></svg><svg x="9600"><use xlink:href="#a"/><use xlink:href="#b" x="-.004" y="2.146"/><use xlink:href="#12"/></svg><svg x="9720"><use xlink:href="#a"/><use xlink:href="#b" x="-.004" y="2.146"/><use xlink:href="#12"/></svg><svg x="9840"><use xlink:href="#a"/><use xlink:href="#b" x="-.004" y="4.317"/><use xlink:href="#12"/><use xlink:href="#13" y="2.171"/></svg><svg x="9960"><use xlink:href="#a"/><use xlink:href="#b" x="-.004" y="8.659"/><use xlink:href="#12"/><use xlink:href="#13" y="2.171"/><use xlink:href="#14" y="4.342"/><use xlink:href="#15" y="6.513"/></svg><svg x="10080"><use xlink:href="#a"/><use xlink:href="#b" x="-.004" y="8.659"/><use xlink:href="#12"/><use xlink:href="#13" y="2.171"/><use xlink:href="#14" y="4.342"/><use xlink:href="#15" y="6.513"/></svg><svg x="10200"><use xlink:href="#a"/><use xlink:href="#b" x="-.004" y="8.659"/><use xlink:href="#12"/><use xlink:href="#13" y="2.171"/><use xlink:href="#14" y="4.342"/><use xlink:href="#15" y="6.513"/></svg><svg x="10320"><use xlink:href="#a"/><use xlink:href="#b" x="-.004" y="8.659"/><use xlink:href="#12"/><use xlink:href="#13" y="2.171"/><use xlink:href="#14" y="4.342"/><use xlink:href="#15" y="6.513"/></svg><svg x="10440"><use xlink:href="#a"/><use xlink:href="#b" x="-.004" y="8.659"/><use xlink:href="#12"/><use xlink:href="#13" y="2.171"/><use xlink:href="#14" y="4.342"/><use xlink:href="#15" y="6.513"/></svg><svg x="10560"><use xlink:href="#a"/><use xlink:href="#b" x="20.996" y="8.659"/><use xlink:href="#12"/><use xlink:href="#13" y="2.171"/><use xlink:href="#14" y="4.342"/><use xlink:href="#15" y="6.513"/><use xlink:href="#2" y="8.684"/></svg><svg x="10680"><use xlink:href="#a"/><use xlink:href="#b" x="20.996" y="8.659"/><use xlink:href="#12"/><use xlink:href="#13" y="2.171"/><use xlink:href="#14" y="4.342"/><use xlink:href="#15" y="6.513"/><use xlink:href="#2" y="8.684"/></svg><svg x="10800"><use xlink:href="#a"/><use xlink:href="#b" x="-.004" y="10.83"/><use xlink:href="#12"/><use xlink:href="#13" y="2.171"/><use xlink:href="#14" y="4.342"/><use xlink:href="#15" y="6.513"/><use xlink:href="#2" y="8.684"/></svg></svg></g></g></svg></svg>